# xmcd CD database file
#
# Track frame offsets:
#	150
#	28842
#	47191
#	94186
#	127413
#	161404
#	208367
#	227322
#	250504
#	281193
#	309977
#	326911
#	342637
#
# Disc length: 4713 seconds
#
# Revision: 0
# Processed by: cddbd v1.5.2PL0 Copyright (c) Steve Scherf et al.
# Submitted via: CDex 1.70beta2
#
DISCID=c612670d
DTITLE=The Dave Brubeck Quartet - In Europe
DYEAR=1958
DGENRE=Jazz
TTITLE0=Wonderful Copenhagen
TTITLE1=My One Bad Habit is Falling in Love
TTITLE2=Tangerine
TTITLE3=The Wright Groove
TTITLE4=Like Someone In Love
TTITLE5=Watusi Drums
TTITLE6=Shish Kebab
TTITLE7=Fare Thee Well, Annabelle
TTITLE8=Don't Worry About Me
TTITLE9=Lover Come Back To Me
TTITLE10=Royal Garden Blue
TTITLE11=How High The Moon
TTITLE12=Love Walked In ( Incomplete )
EXTD=YEAR: 1958
EXTT0=
EXTT1=
EXTT2=
EXTT3=
EXTT4=
EXTT5=
EXTT6=
EXTT7=
EXTT8=
EXTT9=
EXTT10=
EXTT11=
EXTT12=
PLAYORDER=
